<svg xmlns="http://www.w3.org/2000/svg" xmlns:xlink="http://www.w3.org/1999/xlink" width="165" height="165" version="1.1" viewBox="0 0 165 165"><title>camera_lines</title><desc>Created with Sketch.</desc><g id="Share-Copy-2" fill="none" fill-rule="evenodd" stroke="none" stroke-width="1" transform="translate(-744.000000, -478.000000)"><g id="camera_lines" fill="#ECECEC" transform="translate(744.000000, 478.000000)"><g id="Group-5"><polygon id="Combined-Shape" fill-rule="nonzero" points="2 2 2 31 0 29 0 0 29 0 31 2" transform="translate(15.500000, 15.500000) rotate(-360.000000) translate(-15.500000, -15.500000)"/><polygon id="Combined-Shape" fill-rule="nonzero" points="136 2 136 31 134 29 134 0 163 0 165 2" transform="translate(149.500000, 15.500000) rotate(-630.000000) translate(-149.500000, -15.500000)"/><polygon id="Combined-Shape" fill-rule="nonzero" points="136 136 136 165 134 163 134 134 163 134 165 136" transform="translate(149.500000, 149.500000) rotate(-540.000000) translate(-149.500000, -149.500000)"/><polygon id="Combined-Shape" fill-rule="nonzero" points="2 136 2 165 0 163 0 134 29 134 31 136" transform="translate(15.500000, 149.500000) rotate(-810.000000) translate(-15.500000, -149.500000)"/></g></g></g></svg>