<svg xmlns="http://www.w3.org/2000/svg" id="Layer_1" data-name="Layer 1" viewBox="0 0 1484.39 208.86"><defs><style>.cls-1{opacity:.9}.cls-15,.cls-17,.cls-18,.cls-19,.cls-2,.cls-3,.cls-7,.cls-8,.cls-9{fill-opacity:0}.cls-2{stroke:#f6b351}.cls-19,.cls-2,.cls-3,.cls-7{stroke-miterlimit:2.8}.cls-2,.cls-3{stroke-width:49.7px}.cls-3,.cls-7{stroke:#f6921e}.cls-4{opacity:.8}.cls-5{fill:#2ab674}.cls-6{fill:#eb5d10}.cls-19,.cls-7{stroke-width:51.1px}.cls-17,.cls-19,.cls-8{stroke:#f5ab45}.cls-8,.cls-9{stroke-miterlimit:2.8;stroke-width:51.1px}.cls-9{stroke:#30b46c}.cls-10{fill:#f6941f}.cls-11{fill:#30b46c}.cls-12{fill:#f0593c}.cls-13{fill:#29b473}.cls-14{fill:#ef5a28}.cls-15{stroke:#faaf40;stroke-width:49.7px}.cls-15,.cls-17,.cls-18{stroke-miterlimit:2.8}.cls-16{fill:#f6921e}.cls-17,.cls-18{stroke-width:51.1px}.cls-18{stroke:#ef5a28}</style></defs><title>logo2</title><g class="cls-1"><path d="M384.34,560.78a67,67,0,1,0,134,0" class="cls-2" transform="translate(-225.79 -443.75)"/></g><g class="cls-1"><path d="M250.64,560.78a67,67,0,0,0,134,0" class="cls-3" transform="translate(-225.79 -443.75)"/></g><g class="cls-4"><path d="M275.57,561.22H225.79V469.74h49.78Z" class="cls-5" transform="translate(-225.79 -443.75)"/></g><g class="cls-1"><path d="M409.36,561.22H359.58V469.74h49.78Z" class="cls-6" transform="translate(-225.79 -443.75)"/></g><g class="cls-4"><path d="M493.63,561.22h49.78V469.75H493.63Z" class="cls-5" transform="translate(-225.79 -443.75)"/></g><path d="M715.84,556.58a66.28,66.28,0,1,1-66.28-66.28A66.29,66.29,0,0,1,715.84,556.58Z" class="cls-7" transform="translate(-225.79 -443.75)"/><g class="cls-1"><path d="M784.18,556.6a66.28,66.28,0,0,0,132.56,0h0" class="cls-8" transform="translate(-225.79 -443.75)"/></g><g class="cls-1"><path d="M916.74,556.56a66.28,66.28,0,0,0-132.56,0" class="cls-9" transform="translate(-225.79 -443.75)"/></g><g class="cls-1"><path d="M1005.5,558.55v88.9h-49v-88.9Z" class="cls-10" transform="translate(-225.79 -443.75)"/></g><g class="cls-4"><path d="M1005.5,443.75v115.5h-49V443.75Z" class="cls-11" transform="translate(-225.79 -443.75)"/></g><path d="M981.7,441.69Z" class="cls-12" transform="translate(-225.79 -443.75)"/><g class="cls-1"><path d="M1204.45,556.58h-49.78v91.49h49.78Z" class="cls-13" transform="translate(-225.79 -443.75)"/></g><path d="M1179.24,556.58A66.28,66.28,0,1,1,1113,490.3,66.29,66.29,0,0,1,1179.24,556.58Z" class="cls-7" transform="translate(-225.79 -443.75)"/><g class="cls-1"><path d="M1276.3,556.58h-49.78v91.48h49.78Z" class="cls-14" transform="translate(-225.79 -443.75)"/></g><g class="cls-4"><path d="M1251.08,556.6a66.28,66.28,0,0,1,66.22-66.3" class="cls-15" transform="translate(-225.79 -443.75)"/></g><path d="M1340.8,491h0Z" class="cls-16" transform="translate(-225.79 -443.75)"/><g class="cls-1"><path d="M1351.88,556.6a66.28,66.28,0,1,0,132.56,0" class="cls-17" transform="translate(-225.79 -443.75)"/></g><g class="cls-1"><path d="M1484.44,556.56a66.28,66.28,0,0,0-132.56,0h0" class="cls-18" transform="translate(-225.79 -443.75)"/></g><g class="cls-1"><path d="M1684.64,556.58a66.28,66.28,0,1,1-66.28-66.28A66.29,66.29,0,0,1,1684.64,556.58Z" class="cls-19" transform="translate(-225.79 -443.75)"/></g></svg>